<svg xmlns="http://www.w3.org/2000/svg" version="1.1" xmlns:xlink="http://www.w3.org/1999/xlink" xmlns:svgjs="http://svgjs.dev/svgjs" width="1000" height="1000" viewBox="0 0 1000 1000"><rect width="1000" height="1000" fill="#111827"></rect><g transform="matrix(0.7,0,0,0.7,149.57575764584226,437.77815939310494)"><svg viewBox="0 0 396 71" data-background-color="#111827" preserveAspectRatio="xMidYMid meet" height="179" width="1000" xmlns="http://www.w3.org/2000/svg" xmlns:xlink="http://www.w3.org/1999/xlink"><g id="tight-bounds" transform="matrix(1,0,0,1,0.2400000396479527,-0.24261226584553697)"><svg viewBox="0 0 395.52 71.48522453169105" height="71.48522453169105" width="395.52"><g><svg viewBox="0 0 395.52 71.48522453169105" height="71.48522453169105" width="395.52"><g><svg viewBox="0 0 395.52 71.48522453169105" height="71.48522453169105" width="395.52"><g><svg viewBox="0 0 395.52 71.48522453169105" height="71.48522453169105" width="395.52"><g><svg viewBox="0 0 395.52 71.48522453169105" height="71.48522453169105" width="395.52"><g transform="matrix(1,0,0,1,0,0)"><svg width="395.52" viewBox="5.440000057220459 -38.650001525878906 285.4100036621094 51.590003967285156" height="71.48522453169105" data-palette-color="#ffffff"><path d="M5.44 0L5.44-38.16 13.18-38.16 27.05-24.24 40.92-38.16 48.66-38.16 48.66 0 40.92 0 40.92-27.44 27.05-14.09 13.18-27.44 13.18 0 5.44 0ZM54.61 0L72.53-38.16 80.73-38.16 99.19 0 91.06 0 88.01-6.42 65.72-6.42 62.77 0 54.61 0ZM68.67-12.79L84.96-12.79 76.71-30.13 68.67-12.79ZM100.78 12.94L97.77 6.32Q99.46 5.3 100.67 4.17 101.87 3.05 102.66 1.7 103.44 0.34 103.8-1.33 104.17-3 104.17-5.13L104.17-5.13 104.17-38.16 111.91-38.16 111.91-6.52Q111.91-3.98 111.69-1.89 111.47 0.2 110.97 1.94 110.47 3.69 109.63 5.15 108.78 6.62 107.55 7.93 106.32 9.25 104.65 10.47 102.97 11.69 100.78 12.94L100.78 12.94ZM121.79 0L121.79-38.16 154.29-38.16 154.29-31.37 129.53-31.37 129.53-23.75 151.46-23.75 151.46-17.38 129.53-17.38 129.53-6.76 154.8-6.76 154.8 0 121.79 0ZM161.05-5.08L165.18-11.35Q167.25-10.18 169.39-9.24 171.52-8.3 173.82-7.65 176.11-7.01 178.64-6.67 181.17-6.32 184.02-6.32L184.02-6.32Q187.47-6.32 189.88-6.77 192.3-7.23 193.83-8.02 195.35-8.81 196.05-9.91 196.74-11.01 196.74-12.3L196.74-12.3Q196.74-14.38 195.01-15.59 193.28-16.8 189.66-16.8L189.66-16.8Q188.08-16.8 186.32-16.59 184.56-16.38 182.77-16.14 180.97-15.89 179.23-15.69 177.48-15.48 175.94-15.48L175.94-15.48Q173.38-15.48 171.02-16.14 168.67-16.8 166.85-18.12 165.03-19.43 163.95-21.41 162.88-23.39 162.88-26.03L162.88-26.03Q162.88-27.59 163.31-29.13 163.74-30.66 164.68-32.07 165.62-33.47 167.1-34.68 168.59-35.89 170.71-36.77 172.82-37.65 175.59-38.15 178.36-38.65 181.9-38.65L181.9-38.65Q184.46-38.65 187.05-38.37 189.64-38.09 192.09-37.57 194.55-37.06 196.82-36.34 199.09-35.62 201.04-34.74L201.04-34.74 197.65-28.49Q196.03-29.2 194.18-29.8 192.32-30.4 190.3-30.83 188.27-31.27 186.11-31.53 183.95-31.79 181.7-31.79L181.7-31.79Q178.51-31.79 176.44-31.32 174.38-30.86 173.16-30.14 171.94-29.42 171.46-28.53 170.99-27.64 170.99-26.76L170.99-26.76Q170.99-25.05 172.52-23.96 174.06-22.88 177.21-22.88L177.21-22.88Q178.48-22.88 180.13-23.06 181.78-23.24 183.6-23.46 185.41-23.68 187.31-23.86 189.2-24.05 190.98-24.05L190.98-24.05Q194.35-24.05 196.95-23.29 199.55-22.53 201.31-21.13 203.07-19.73 203.97-17.74 204.87-15.75 204.87-13.28L204.87-13.28Q204.87-9.99 203.35-7.41 201.82-4.83 199-3.06 196.18-1.29 192.2-0.38 188.22 0.54 183.34 0.54L183.34 0.54Q180.12 0.54 177.04 0.13 173.96-0.27 171.14-1.01 168.32-1.76 165.77-2.8 163.22-3.83 161.05-5.08L161.05-5.08ZM224.89 0L224.89-31.37 210.8-31.37 210.8-38.16 246.72-38.16 246.72-31.37 232.63-31.37 232.63 0 224.89 0ZM266.66 0L266.66-9.45 249.99-38.16 258.75-38.16 270.49-16.46 282.09-38.16 290.85-38.16 274.4-9.5 274.4 0 266.66 0Z" opacity="1" transform="matrix(1,0,0,1,0,0)" fill="#ffffff" class="undefined-text-0" data-fill-palette-color="primary" id="text-0"></path></svg></g></svg></g></svg></g></svg></g><g></g></svg></g><defs></defs></svg><rect width="395.52" height="71.48522453169105" fill="none" stroke="none" visibility="hidden"></rect></g></svg></g></svg>